<svg xmlns="http://www.w3.org/2000/svg" width="436" height="107.187" viewBox="0 0 436 107.187">
  <g id="Group_414" data-name="Group 414" transform="translate(547.165 429)">
    <g id="Component_1_7" data-name="Component 1 – 7" transform="translate(-547 -429)">
      <path id="Path_8" data-name="Path 8" d="M103,54.9c1.864,0,3.982.264,5.788-.27,2.92-.863,5.457-3.552,7.893-5.293a144.44,144.44,0,0,1,14.208-9.01c14.077-7.749,28.89-14.549,44.728-17.736,11.616-2.337,22.093-2.809,33.151,1.789-3.553-11.12-21.394-10.223-30.52-8.622-20.2,3.544-39.3,11.97-56.3,23.356C115.343,43.535,107.632,48.326,103,54.9Z" transform="translate(25.103 -14.809)" fill="#0a8a2c"/>
      <path id="Path_71" data-name="Path 71" d="M136,63.973c4.081,0,9.226.837,13.155-.341,2.629-.789,4.954-2.71,7.367-3.983,4.625-2.442,9.376-4.716,14.208-6.719,13.955-5.786,29.517-10.536,44.728-10.53,10.019,0,24.392,3,26.677,14.734a22.694,22.694,0,0,1-.366,8.419c5.54-6.687,6.366-19.616-.547-25.611-4.975-4.314-12.51-5.8-18.922-5.954-22.753-.557-44.543,6.611-64.723,16.7C150.666,54.142,140.992,57.934,136,63.973Z" transform="translate(11.23 -23.881)" fill="#f92200"/>
      <path id="Path_1299" data-name="Path 1299" d="M73.663,177.914c-.441-3.49-.949-7.055-.04-10.524.969-3.7,3.2-6.876,4.249-10.524-1.877,0-4.959-.577-6.578.541s-1.98,3.983-2.215,5.774C68.368,168.589,69.119,174.405,73.663,177.914Z" transform="translate(35.692 -79.181)" fill="#f92200"/>
      <path id="Path_1378" data-name="Path 1378" d="M93.1,171a24.819,24.819,0,0,0-2.056,6.841c-.871,10.84,9.1,14.833,18.368,15.239,18.395.807,34.6-7.34,51.042-14.187-1.808-.758-3.84-.526-5.788-.526-5.486,0-9.594,1.2-14.734,3.043-9.3,3.342-20.6,6.41-30.52,4.993-4.409-.63-8.773-1.7-12.054-4.933C94.026,178.181,94.713,174.832,93.1,171Z" transform="translate(29.51 -85.948)" fill="#0a8a2c"/>
      <text id="Sentiment_Analyzer" data-name="Sentiment Analyzer" transform="translate(-0.165 68)" font-size="27" font-family="EthnocentricRg-Regular, Ethnocentric"><tspan x="0" y="0">Sentiment Analyzer</tspan></text>
    </g>
  </g>
</svg>
